<svg width="1082" height="161" viewBox="0 0 1082 161" fill="none" xmlns="http://www.w3.org/2000/svg">
    <path d="M0 129L36.0667 113C72.1333 97 144.267 65 216.4 38.3C288.533 12 360.667 -9.99999 432.8 6.30001C504.933 22 577.067 76 649.2 91.7C721.333 108 793.467 86 865.6 91.7C937.733 97 1009.87 129 1045.93 145L1082 161H1045.93C1009.87 161 937.733 161 865.6 161C793.467 161 721.333 161 649.2 161C577.067 161 504.933 161 432.8 161C360.667 161 288.533 161 216.4 161C144.267 161 72.1333 161 36.0667 161H0V129Z" />
</svg>
