<svg width="28" height="32" viewBox="0 0 28 32" fill="none" xmlns="http://www.w3.org/2000/svg">
<path d="M27.605 9.12202C27.6048 8.60031 27.4932 8.13931 27.2676 7.74366C27.0459 7.35459 26.714 7.0285 26.2688 6.77067C22.5936 4.65155 18.9148 2.5389 15.2409 0.417622C14.2504 -0.154203 13.29 -0.133356 12.3069 0.446678C10.8441 1.30938 3.52017 5.50539 1.33775 6.76948C0.438968 7.28978 0.00162021 8.08606 0.00140418 9.12105C0 13.3827 0.00140418 17.6443 0 21.9061C0.000216028 22.4164 0.107042 22.8684 0.322745 23.2581C0.544498 23.6589 0.881069 23.994 1.33656 24.2577C3.51909 25.5218 10.8439 29.7174 12.3065 30.5804C13.29 31.1607 14.2504 31.1815 15.2412 30.6094C18.9153 28.488 22.5942 26.3755 26.2699 24.2564C26.7254 23.9928 27.062 23.6575 27.2838 23.257C27.4991 22.8673 27.6062 22.4153 27.6064 21.9049C27.6064 21.9049 27.6064 13.3838 27.605 9.12202" fill="#5C8DBC"/>
<path d="M13.8455 15.4721L0.322754 23.2581C0.544507 23.659 0.881078 23.994 1.33657 24.2577C3.5191 25.5218 10.844 29.7175 12.3065 30.5804C13.29 31.1608 14.2504 31.1815 15.2412 30.6095C18.9153 28.4881 22.5943 26.3755 26.27 24.2564C26.7255 23.9928 27.062 23.6576 27.2838 23.2571L13.8455 15.4721" fill="#1A4674"/>
<path d="M9.84018 17.7784C10.6271 19.1521 12.1063 20.0786 13.8032 20.0786C15.5106 20.0786 16.9983 19.1403 17.7811 17.7519L13.8454 15.4721L9.84018 17.7784" fill="#1A4674"/>
<path d="M27.605 9.12205C27.6048 8.60034 27.4932 8.13934 27.2676 7.74368L13.8454 15.4721L27.2838 23.2571C27.4991 22.8674 27.6062 22.4153 27.6064 21.905C27.6064 21.905 27.6064 13.3839 27.605 9.12205" fill="#1B598E"/>
<path d="M26.8661 16.0285H25.816V17.0789H24.7656V16.0285H23.7156V14.9785H24.7656V13.9284H25.816V14.9785H26.8661V16.0285ZM23.0343 16.0285H21.9843V17.0789H20.9342V16.0285H19.8841V14.9785H20.9342V13.9284H21.9843V14.9785H23.0343V16.0285Z" fill="#1E2235"/>
<path d="M17.7811 17.7519C16.9983 19.1403 15.5106 20.0786 13.8032 20.0786C12.1063 20.0786 10.6271 19.1521 9.84018 17.7784C9.44489 17.0891 9.23729 16.3082 9.23811 15.5135C9.23811 12.9924 11.2821 10.9486 13.8032 10.9486C15.4892 10.9486 16.9607 11.8635 17.7514 13.2232L21.7416 10.9256C20.1556 8.18783 17.1946 6.34598 13.8032 6.34598C8.73995 6.34598 4.63553 10.4505 4.63553 15.5135C4.63553 17.1746 5.07741 18.7323 5.84971 20.0758C7.43169 22.828 10.4011 24.6812 13.8032 24.6812C17.2116 24.6812 20.1856 22.8206 21.7654 20.0603L17.7811 17.7519Z" fill="#1E2235"/>
</svg>
