<svg width="29" height="18" viewBox="0 0 29 18" fill="none" xmlns="http://www.w3.org/2000/svg">
<path d="M14.4647 17.0398H15.2513C15.8113 17.0398 16.3387 16.7785 16.6773 16.3325L21.6673 9.76779L26.6573 16.3325C26.996 16.7778 27.5233 17.0398 28.0833 17.0398H28.87L22.504 8.66645L28.5847 0.666458H27.798C27.238 0.666458 26.7107 0.927791 26.372 1.37379L21.6667 7.56445L16.9607 1.37312C16.622 0.927792 16.0947 0.666458 15.5347 0.666458H14.748L20.8287 8.66645L14.4647 17.0398Z" fill="#212121"/>
<path d="M14.6667 9.33313V7.33312C14.6667 2.88312 10.7033 -0.640879 6.114 0.0984542C2.54133 0.673788 0 3.90446 0 7.52246V7.99979V9.33313V9.42779C0 13.7965 3.18467 17.2851 7.24533 17.3331C10.64 17.3731 13.5047 15.1038 14.3833 12.0005H13.698C13.2847 12.0005 12.91 12.2371 12.7307 12.6091C11.5713 15.0058 8.87133 16.5171 5.912 15.8371C3.184 15.2098 1.33333 12.6538 1.33333 9.85513V9.33313H14.6667ZM1.33333 7.80646C1.33333 4.66779 3.20266 2.10179 5.94933 1.48779C9.86533 0.613121 13.3333 3.56779 13.3333 7.33312V7.99979H1.33333V7.80646Z" fill="#212121"/>
</svg>
