<svg width="32" height="31" viewBox="0 0 32 31" fill="none" xmlns="http://www.w3.org/2000/svg">
<path d="M15.5556 0C6.96559 0 0 6.96437 0 15.5556C0 22.4286 4.45715 28.2595 10.6379 30.3164C11.4153 30.4604 11.7008 29.9789 11.7008 29.568C11.7008 29.1972 11.6863 27.9717 11.6797 26.6719C7.35197 27.6129 6.4388 24.8365 6.4388 24.8365C5.7312 23.0385 4.71164 22.5605 4.71164 22.5605C3.30035 21.595 4.81803 21.6147 4.81803 21.6147C6.38011 21.7245 7.20264 23.2178 7.20264 23.2178C8.59002 25.596 10.8417 24.9084 11.7293 24.511C11.8689 23.5055 12.2721 22.8194 12.7169 22.4309C9.26188 22.0375 5.62969 20.7036 5.62969 14.7432C5.62969 13.045 6.23737 11.6572 7.23253 10.5679C7.071 10.176 6.53859 8.59393 7.3832 6.45124C7.3832 6.45124 8.68945 6.03315 11.6621 8.04578C12.9028 7.70101 14.2336 7.52826 15.5556 7.5224C16.8776 7.52826 18.2094 7.70101 19.4525 8.04578C22.4217 6.03315 23.7261 6.45124 23.7261 6.45124C24.5728 8.59393 24.0401 10.176 23.8786 10.5679C24.8759 11.6572 25.4795 13.0449 25.4795 14.7432C25.4795 20.7178 21.8404 22.0334 18.3766 22.4185C18.9345 22.9012 19.4317 23.848 19.4317 25.2991C19.4317 27.3805 19.4136 29.0556 19.4136 29.568C19.4136 29.982 19.6936 30.4671 20.4822 30.3143C26.6596 28.2551 31.1111 22.4263 31.1111 15.5556C31.1111 6.96437 24.1465 0 15.5556 0Z" fill="black"/>
<path d="M5.82609 22.1594C5.79193 22.2366 5.67018 22.2598 5.55952 22.2068C5.44667 22.1561 5.38323 22.0507 5.41983 21.9731C5.45338 21.8935 5.57514 21.8713 5.68774 21.9248C5.80084 21.9754 5.86525 22.0818 5.82609 22.1594V22.1594ZM6.59128 22.8421C6.5171 22.9109 6.37204 22.8789 6.27359 22.7702C6.17184 22.6618 6.15281 22.5168 6.22808 22.4469C6.30458 22.3782 6.44524 22.4103 6.54724 22.5189C6.64898 22.6286 6.66875 22.7727 6.59116 22.8422L6.59128 22.8421ZM7.11624 23.7156C7.02084 23.7818 6.86492 23.7197 6.76867 23.5814C6.67338 23.4432 6.67338 23.2772 6.77074 23.2108C6.86736 23.1443 7.02084 23.204 7.11844 23.3413C7.2136 23.482 7.2136 23.6479 7.11612 23.7157L7.11624 23.7156ZM8.00392 24.7273C7.91864 24.8213 7.7371 24.7961 7.60412 24.6678C7.46822 24.5424 7.43027 24.3644 7.5158 24.2703C7.60205 24.1761 7.78468 24.2026 7.91864 24.3299C8.05369 24.455 8.09493 24.6344 8.00404 24.7273H8.00392ZM9.15121 25.0689C9.11376 25.1907 8.93881 25.2461 8.76264 25.1944C8.58671 25.141 8.47155 24.9983 8.50705 24.8752C8.54365 24.7526 8.71933 24.6949 8.89684 24.7503C9.07252 24.8033 9.18793 24.945 9.15133 25.0689H9.15121ZM10.4571 25.2138C10.4615 25.3421 10.312 25.4485 10.1271 25.4508C9.94104 25.4548 9.79061 25.351 9.78866 25.2249C9.78866 25.0953 9.93469 24.9899 10.1206 24.9868C10.3056 24.9832 10.4571 25.0863 10.4571 25.2138V25.2138ZM11.7398 25.1646C11.762 25.2898 11.6334 25.4183 11.4498 25.4525C11.2693 25.4854 11.1021 25.4082 11.0791 25.2841C11.0566 25.1558 11.1876 25.0273 11.3678 24.994C11.5518 24.9621 11.7164 25.0373 11.7398 25.1646" fill="black"/>
</svg>
