<svg width="32" height="32" viewBox="0 0 32 32" fill="none" xmlns="http://www.w3.org/2000/svg">
<path d="M30.5244 14.1694L16.941 0.586706C16.1592 -0.195569 14.8904 -0.195569 14.1077 0.586706L11.287 3.40737L14.8652 6.98551C15.6966 6.70454 16.6502 6.89302 17.313 7.55584C17.9789 8.2229 18.1661 9.18455 17.8783 10.0187L21.3267 13.4672C22.161 13.1798 23.1236 13.3657 23.7899 14.0331C24.7212 14.964 24.7212 16.4728 23.7899 17.4043C22.8584 18.336 21.3496 18.336 20.4176 17.4043C19.7172 16.7031 19.5441 15.6744 19.8987 14.8114L16.6828 11.5955L16.6825 20.0584C16.9156 20.1736 17.1285 20.3259 17.313 20.5092C18.2442 21.4401 18.2442 22.949 17.313 23.8813C16.3815 24.8124 14.872 24.8124 13.9418 23.8813C13.0105 22.949 13.0105 21.4403 13.9418 20.5094C14.165 20.2861 14.4302 20.1092 14.7221 19.9891V11.4474C14.4298 11.3281 14.1644 11.1511 13.9418 10.9271C13.2362 10.2225 13.0665 9.18723 13.4281 8.32085L9.90087 4.79327L0.586979 14.1065C-0.19566 14.8896 -0.19566 16.1584 0.586979 16.9408L14.1706 30.5237C14.9527 31.3061 16.2212 31.3061 17.0042 30.5237L30.5243 17.0039C31.3066 16.2213 31.3066 14.9517 30.5243 14.1694" fill="#EF4444"/>
</svg>
