<svg width="32" height="32" viewBox="0 0 32 32" fill="none" xmlns="http://www.w3.org/2000/svg">
<path d="M31.1111 0H0V31.1111H31.1111V0Z" fill="#F7DF1E"/>
<path d="M20.8988 24.3057C21.5254 25.3289 22.3407 26.081 23.7827 26.081C24.9941 26.081 25.7679 25.4756 25.7679 24.639C25.7679 23.6366 24.9728 23.2815 23.6395 22.6983L22.9086 22.3847C20.799 21.4859 19.3975 20.36 19.3975 17.9798C19.3975 15.7872 21.0681 14.118 23.679 14.118C25.5378 14.118 26.8741 14.7649 27.837 16.4588L25.5605 17.9205C25.0592 17.0217 24.5185 16.6677 23.679 16.6677C22.8227 16.6677 22.28 17.2109 22.28 17.9205C22.28 18.7975 22.8232 19.1526 24.0775 19.6958L24.8084 20.0089C27.2923 21.0741 28.6948 22.16 28.6948 24.6015C28.6948 27.2336 26.6271 28.6756 23.8504 28.6756C21.1353 28.6756 19.3812 27.3817 18.5229 25.6859L20.8988 24.3057ZM10.5713 24.559C11.0306 25.3738 11.4484 26.0627 12.4528 26.0627C13.4133 26.0627 14.0192 25.6869 14.0192 24.2257V14.2849H16.9427V24.2652C16.9427 27.2924 15.1679 28.6701 12.5773 28.6701C10.2365 28.6701 8.88097 27.4588 8.19159 25.9998L10.5713 24.559Z" fill="black"/>
</svg>
