<svg width="14" height="32" viewBox="0 0 14 32" fill="none" xmlns="http://www.w3.org/2000/svg">
<path d="M6.88969 0.0849686L7.71991 1.6443C7.90656 1.93205 8.10877 2.18676 8.34695 2.42396C9.04523 3.11353 9.69611 3.84951 10.2951 4.62685C11.7019 6.47394 12.6507 8.52517 13.3283 10.7436C13.7346 12.0988 13.9553 13.489 13.9718 14.8947C14.0399 19.0973 12.5991 22.7059 9.69435 25.705C9.22186 26.1806 8.71141 26.6169 8.16807 27.0096C7.88032 27.0096 7.74421 26.7889 7.62561 26.5858C7.40963 26.209 7.26588 25.7952 7.20175 25.3657C7.09968 24.8573 7.0326 24.3489 7.06565 23.8239V23.5867C7.04232 23.5361 6.78859 0.204543 6.88969 0.0849686V0.0849686Z" fill="#599636"/>
<path d="M6.88971 0.0334449C6.85569 -0.0346056 6.82166 0.0169183 6.78764 0.0499715C6.80416 0.390224 6.68556 0.693535 6.49988 0.983236C6.29573 1.27099 6.02547 1.49167 5.75424 1.72888C4.24741 3.0335 3.06138 4.60936 2.11159 6.37187C0.847791 8.74391 0.196449 11.2861 0.0117404 13.9624C-0.0728368 14.9278 0.316996 18.3342 0.621279 19.317C1.4515 21.9263 2.94278 24.1126 4.87444 26.0103C5.34885 26.4672 5.85632 26.891 6.38128 27.2984C6.53391 27.2984 6.55043 27.1623 6.58543 27.0612C6.65235 26.8448 6.70336 26.6239 6.73806 26.4001L7.07831 23.8589L6.88971 0.0334449Z" fill="#6CAC48"/>
<path d="M7.71994 28.0421C7.75397 27.6532 7.94062 27.3304 8.1438 27.0087C7.93965 26.9241 7.78799 26.7559 7.66939 26.5683C7.56712 26.3906 7.48246 26.2034 7.41663 26.0093C7.17942 25.2977 7.12887 24.5511 7.06082 23.8239V23.3835C6.97624 23.4516 6.95875 24.0271 6.95875 24.1126C6.90928 24.8812 6.80729 25.6455 6.65349 26.4001C6.60294 26.7054 6.56891 27.0096 6.38129 27.2809C6.38129 27.3149 6.38129 27.3489 6.39781 27.3995C6.70307 28.2977 6.78667 29.2125 6.8382 30.1448V30.4851C6.8382 30.8914 6.82167 30.8059 7.15901 30.942C7.29511 30.9925 7.44677 31.01 7.58287 31.1111C7.68494 31.1111 7.70147 31.0265 7.70147 30.9585L7.65092 30.3995V28.8402C7.63439 28.568 7.68494 28.2977 7.71897 28.043L7.71994 28.0421Z" fill="#C2BFBF"/>
</svg>
