<svg width="32" height="32" viewBox="0 0 32 32" fill="none" xmlns="http://www.w3.org/2000/svg">
<path d="M18.6049 20.1343L10.9749 18.5399C10.9429 18.6016 10.9074 18.6615 10.8684 18.7191L17.8145 28.8517L18.2335 28.4332L19.4152 21.0845C19.2155 21.0001 19.0382 20.8703 18.8975 20.7053C18.7568 20.5403 18.6566 20.3447 18.6049 20.1342V20.1343ZM15.8215 10.1602C15.5356 10.5986 15.0422 10.8888 14.4803 10.8888C14.3938 10.8888 14.3097 10.8801 14.227 10.867L10.7474 16.3114L20.0439 12.3108C20.041 12.2734 20.0327 12.2384 20.0327 12.2C20.0327 12.1217 20.0434 12.0459 20.056 11.971L15.8215 10.1603V10.1602ZM16.0742 9.16803L20.5786 11.094C20.7221 10.9818 20.8863 10.8989 21.0618 10.85L21.8021 6.24655L18.9816 3.42606L15.8069 8.39379C15.9625 8.62395 16.0547 8.89103 16.0742 9.16816V9.16803ZM25.5125 9.95698L22.6858 7.1298L22.0714 10.9467C22.2272 11.025 22.3671 11.1315 22.4841 11.2607L25.5125 9.95698V9.95698ZM18.74 19.1289C18.8506 18.9281 19.0096 18.758 19.2024 18.634C19.3952 18.51 19.616 18.436 19.8446 18.4187L20.6564 13.3695C20.5927 13.3273 20.5358 13.2767 20.4799 13.2247L11.1299 17.2487C11.1538 17.3464 11.1703 17.446 11.1781 17.5496L18.74 19.1289V19.1289ZM26.2825 10.7275L23.012 12.1347L31.0815 15.5847L31.1106 15.5556L26.2825 10.7275ZM20.4381 21.0997L19.4552 27.2105L25.1625 21.5032L21.0516 20.6447C20.8939 20.851 20.6813 21.0087 20.4381 21.0997V21.0997ZM9.34449 19.5286C9.13789 19.5286 8.94005 19.4931 8.75485 19.4303L6.85904 22.3971L6.12648 21.665L7.92215 18.8553C7.87774 18.8002 7.83636 18.7428 7.79819 18.6831L4.54519 20.0837L3.77411 19.3126L7.33482 17.78L0.897469 16.4364L0.0170136 15.5556L0.295551 15.277L7.71896 16.8267C7.80433 16.6648 7.91363 16.5166 8.04319 16.3873L4.44019 11.1319L5.16789 10.4042L8.93215 15.8953C9.06733 15.864 9.2056 15.8478 9.34437 15.8472C9.50332 15.8472 9.65742 15.8696 9.80471 15.9075L13.3271 10.3959C13.0404 10.0985 12.8802 9.7013 12.8804 9.2881C12.8804 9.16171 12.8964 9.03922 12.9242 8.92158L8.52978 7.04279L9.30062 6.27183L13.4641 8.05243C13.6752 7.87842 13.9276 7.76167 14.1969 7.71339C14.4662 7.66512 14.7433 7.68696 15.0018 7.77681L18.2494 2.69399L15.5556 0L0 15.5556L15.5556 31.1111L17.0863 29.5804L10.0882 19.371C9.85402 19.4748 9.60068 19.5285 9.34449 19.5286V19.5286ZM21.6466 13.5872L20.8207 18.7201C20.965 18.8361 21.0845 18.9799 21.1721 19.143C21.2597 19.3061 21.3136 19.4852 21.3306 19.6696L26.0181 20.6481L30.3104 16.3558L22.5629 13.0434C22.3412 13.3385 22.0118 13.534 21.6466 13.5873V13.5872Z" fill="#25C7B7"/>
</svg>
