<svg width="32" height="32" viewBox="0 0 32 32" fill="none" xmlns="http://www.w3.org/2000/svg">
<path d="M27.8671 6.04782C25.9865 3.61266 23.4261 1.78986 20.5095 0.809976C17.593 -0.169911 14.4513 -0.262876 11.4819 0.542838C8.51253 1.34855 5.84877 3.01675 3.82752 5.33646C1.80627 7.65617 0.51834 10.5232 0.126606 13.5749C-0.265127 16.6266 0.256936 19.726 1.62677 22.481C2.9966 25.236 5.15268 27.5229 7.8223 29.0525C10.4919 30.582 13.5552 31.2856 16.6247 31.0741C19.6942 30.8626 22.632 29.7456 25.0666 27.8643C31.8624 22.6124 33.1166 12.846 27.8666 6.04782H27.8671Z" fill="#FF6C37"/>
<path d="M20.802 9.91141L14.2429 16.5225L12.3894 14.6169C18.8449 8.16142 19.4929 8.74475 20.8024 9.91141H20.802Z" fill="#1E2235"/>
<path d="M14.243 16.7033C14.1849 16.7018 14.1294 16.6788 14.0874 16.6386L12.2208 14.772C12.1787 14.7285 12.1552 14.6703 12.1552 14.6099C12.1552 14.5494 12.1787 14.4912 12.2208 14.4477C18.5854 8.08315 19.454 8.38113 20.9576 9.74223C20.9827 9.76237 21.0029 9.78811 21.0164 9.81738C21.0299 9.84666 21.0364 9.87868 21.0353 9.91091C21.0451 9.9741 21.0208 10.0388 20.9707 10.0796L14.4116 16.6391C14.3657 16.6813 14.3054 16.7044 14.243 16.7038V16.7033ZM12.7132 14.6164L14.243 16.1462L20.4651 9.92403C20.2503 9.6548 19.9437 9.47421 19.6041 9.41682C19.2645 9.35942 18.9156 9.42924 18.6242 9.61293C17.4965 10.1185 15.6818 11.6609 12.7132 14.6164V14.6164Z" fill="#FF6C37"/>
<path d="M16.1227 18.3502L14.3338 16.5224L20.8929 10.0407C22.656 11.7649 20.0373 14.6427 16.1227 18.3497V18.3502Z" fill="#1E2235"/>
<path d="M16.1227 18.5835C16.0654 18.579 16.0109 18.5563 15.9672 18.5189L14.1394 16.73C14.112 16.6635 14.112 16.5889 14.1394 16.5224C14.12 16.4679 14.12 16.4083 14.1394 16.3538L20.6985 9.79473C20.7441 9.75187 20.8043 9.72801 20.8669 9.72801C20.9295 9.72801 20.9897 9.75187 21.0353 9.79473C21.2478 9.99023 21.4156 10.2292 21.5274 10.4953C21.6392 10.7615 21.6924 11.0486 21.6833 11.3371C21.6833 13.0871 19.6869 15.2906 16.2909 18.5057C16.2456 18.5506 16.1859 18.5782 16.1223 18.5835H16.1227ZM14.6707 16.5224L16.1354 17.9866C18.7278 15.5366 21.204 13.0089 21.2167 11.2978C21.2308 10.935 21.1108 10.5798 20.8798 10.2998L14.6707 16.5224Z" fill="#FF6C37"/>
<path d="M12.441 14.6558L13.7374 15.9523C13.7457 15.9596 13.7523 15.9685 13.7568 15.9786C13.7614 15.9886 13.7637 15.9996 13.7637 16.0106C13.7637 16.0216 13.7614 16.0325 13.7568 16.0426C13.7523 16.0526 13.7457 16.0616 13.7374 16.0689L11.0021 16.6522C10.9469 16.6642 10.8893 16.6577 10.8381 16.6339C10.7869 16.61 10.7448 16.5701 10.7184 16.5202C10.692 16.4703 10.6826 16.4131 10.6917 16.3573C10.7008 16.3016 10.7278 16.2503 10.7687 16.2113L12.3632 14.63C12.3632 14.63 12.4152 14.63 12.441 14.6558Z" fill="#1E2235"/>
<path d="M10.9374 16.9113C10.851 16.9102 10.7663 16.887 10.6914 16.8439C10.6165 16.8007 10.5539 16.7391 10.5097 16.6649C10.4598 16.5709 10.4417 16.4632 10.4581 16.3581C10.4745 16.253 10.5245 16.1559 10.6006 16.0816L12.1819 14.4871C12.2389 14.4362 12.3127 14.408 12.3892 14.408C12.4657 14.408 12.5395 14.4362 12.5965 14.4871L13.8929 15.7836C13.9698 15.8565 13.9999 15.9668 13.9707 16.0689C13.9416 16.171 13.856 16.2522 13.7505 16.2765L11.0152 16.8598L10.9374 16.9113ZM12.3894 14.9411L10.9248 16.4058L13.349 15.8871L12.3894 14.9411Z" fill="#FF6C37"/>
<path d="M24.2893 6.26852C23.3511 5.36339 21.8772 5.32547 20.8933 6.17956C19.9094 7.03365 19.7413 8.49975 20.5074 9.5546C21.2735 10.6095 22.7177 10.905 23.8358 10.2352L22.0727 8.47204L24.2893 6.26852Z" fill="#1E2235"/>
<path d="M22.5394 10.8311C22.0003 10.8242 21.4753 10.6588 21.0296 10.3556C20.5839 10.0524 20.2373 9.6247 20.033 9.12586C19.8288 8.6274 19.7752 8.08002 19.8789 7.55143C19.9826 7.02285 20.239 6.53625 20.6163 6.15186C21.1353 5.6424 21.8335 5.35698 22.5607 5.35698C23.288 5.35698 23.9862 5.6424 24.5052 6.15186C24.5548 6.19366 24.583 6.2554 24.583 6.32054C24.5828 6.35258 24.5758 6.38423 24.5624 6.41333C24.549 6.44244 24.5295 6.46831 24.5052 6.48921L22.4052 8.47253L23.9996 10.0412C24.0255 10.0659 24.0449 10.0965 24.0561 10.1304C24.0674 10.1643 24.0702 10.2004 24.0643 10.2356C24.0604 10.2696 24.0492 10.3024 24.0313 10.3315C24.0134 10.3607 23.9893 10.3855 23.9607 10.4043C23.5324 10.6721 23.04 10.8198 22.535 10.8321L22.5394 10.8311ZM22.5394 5.80137C21.6157 5.80623 20.7894 6.36186 20.4428 7.21109C20.0962 8.06032 20.2848 9.03788 20.9323 9.69024C21.2543 10.0142 21.6667 10.2333 22.1154 10.3189C22.5641 10.4045 23.0282 10.3526 23.4469 10.17L21.9171 8.64024C21.8928 8.6208 21.8732 8.59613 21.8597 8.56807C21.8462 8.54 21.8392 8.50926 21.8392 8.47813C21.8392 8.44699 21.8462 8.41625 21.8597 8.38818C21.8732 8.36012 21.8928 8.33545 21.9171 8.31601L23.9394 6.28067C23.5374 5.9726 23.0458 5.80414 22.5394 5.80089V5.80137Z" fill="#FF6C37"/>
<path d="M24.3282 6.3074L22.1116 8.51092L23.8747 10.274C24.0521 10.1722 24.2173 10.0503 24.3671 9.9109C24.8292 9.42248 25.0834 8.77362 25.0762 8.10129C25.0689 7.42896 24.8007 6.78574 24.3282 6.3074V6.3074Z" fill="#1E2235"/>
<path d="M23.8353 10.4685C23.8062 10.4701 23.7771 10.4651 23.7501 10.4539C23.7232 10.4427 23.6992 10.4256 23.6797 10.4038L21.9166 8.64073C21.8923 8.62129 21.8727 8.59662 21.8592 8.56856C21.8457 8.54049 21.8387 8.50976 21.8387 8.47862C21.8387 8.44748 21.8457 8.41674 21.8592 8.38868C21.8727 8.36061 21.8923 8.33595 21.9166 8.3165L24.1202 6.15186C24.1414 6.11977 24.1703 6.09345 24.2043 6.07524C24.2382 6.05704 24.2761 6.04751 24.3146 6.04751C24.3531 6.04751 24.391 6.05704 24.4249 6.07524C24.4589 6.09345 24.4878 6.11977 24.509 6.15186C24.7677 6.40532 24.9732 6.70785 25.1135 7.04173C25.2538 7.37561 25.3261 7.73413 25.3261 8.09629C25.3261 8.45845 25.2538 8.81697 25.1135 9.15085C24.9732 9.48474 24.7677 9.78727 24.509 10.0407C24.3564 10.2026 24.1818 10.3422 23.9904 10.4554C23.9421 10.4797 23.8864 10.4844 23.8348 10.4685H23.8353ZM22.4095 8.47254L23.8742 9.93718C23.9749 9.86657 24.0703 9.78858 24.1595 9.70385C24.5901 9.27447 24.8326 8.69173 24.8338 8.08365C24.8347 7.53948 24.6364 7.01378 24.2762 6.60589L22.4095 8.47254Z" fill="#FF6C37"/>
<path d="M21.0742 10.1836C20.8986 10.0187 20.6668 9.92697 20.426 9.92697C20.1851 9.92697 19.9533 10.0187 19.7778 10.1836L13.9061 16.0422L14.8783 17.0275L21.0873 11.5831C21.182 11.4924 21.2571 11.3832 21.308 11.2623C21.3589 11.1415 21.3846 11.0114 21.3833 10.8803C21.3821 10.7491 21.3541 10.6196 21.3009 10.4997C21.2477 10.3798 21.1706 10.2721 21.0742 10.1831V10.1836Z" fill="#1E2235"/>
<path d="M14.8263 17.2613C14.7682 17.2599 14.7127 17.2369 14.6707 17.1967L13.6854 16.2113C13.6434 16.1678 13.6199 16.1097 13.6199 16.0492C13.6199 15.9887 13.6434 15.9306 13.6854 15.8871L19.5576 10.0407C19.7267 9.87177 19.9427 9.75755 20.1775 9.71286C20.4124 9.66816 20.6552 9.69505 20.8746 9.79004C21.0939 9.88503 21.2797 10.0437 21.4078 10.2456C21.5359 10.4474 21.6004 10.6831 21.5929 10.922C21.5862 11.0842 21.5471 11.2434 21.4781 11.3903C21.4091 11.5372 21.3114 11.6689 21.1909 11.7776L14.9818 17.222C14.9367 17.2539 14.8812 17.2678 14.8263 17.2609V17.2613ZM14.1394 16.0422L14.7874 16.7033L20.8798 11.4013C21.0305 11.2701 21.1204 11.0824 21.1262 10.8826C21.1321 10.6829 21.0533 10.4874 20.906 10.3513C20.77 10.2159 20.5859 10.1398 20.3939 10.1398C20.2019 10.1398 20.0178 10.2159 19.8818 10.3513L14.1394 16.0422Z" fill="#FF6C37"/>
<path d="M9.35613 22.7184C9.33954 22.7409 9.3306 22.7682 9.3306 22.7962C9.3306 22.8241 9.33954 22.8514 9.35613 22.8739L9.61522 24.0017C9.6256 24.0681 9.61576 24.136 9.58698 24.1967C9.55819 24.2574 9.5118 24.308 9.45383 24.342C9.39608 24.3758 9.3291 24.3903 9.26253 24.3836C9.19596 24.3769 9.13325 24.3492 9.08342 24.3046L7.30768 22.5935L12.843 17.0144H14.7616L16.0581 18.3108C14.0357 20.079 11.7808 21.562 9.35613 22.7184V22.7184Z" fill="#1E2235"/>
<path d="M9.23948 24.6239C9.09267 24.621 8.94781 24.5607 8.85059 24.4552L7.15262 22.7573C7.1283 22.7378 7.10867 22.7132 7.09517 22.6851C7.08168 22.657 7.07468 22.6263 7.07468 22.5951C7.07468 22.564 7.08168 22.5333 7.09517 22.5052C7.10867 22.4771 7.1283 22.4525 7.15262 22.433L12.7263 16.8462C12.7575 16.813 12.7983 16.7904 12.843 16.7816H14.7743C14.8246 16.7638 14.8795 16.7638 14.9298 16.7816L16.2263 18.078C16.2509 18.1007 16.2697 18.1291 16.281 18.1607C16.2922 18.1923 16.2957 18.2261 16.2909 18.2593C16.2919 18.2915 16.2853 18.3235 16.2718 18.3528C16.2583 18.382 16.2383 18.4078 16.2132 18.428L16.1096 18.5189C14.0791 20.2117 11.8452 21.6443 9.45968 22.7835L9.70614 23.8335C9.72519 23.9145 9.72592 23.9987 9.70827 24.0801C9.69063 24.1614 9.65505 24.2377 9.60414 24.3035C9.55323 24.3694 9.48827 24.423 9.41399 24.4605C9.33972 24.498 9.25801 24.5185 9.17482 24.5204L9.23948 24.6239ZM7.65817 22.5886L9.18746 24.131C9.20171 24.1437 9.22014 24.1507 9.23923 24.1507C9.25833 24.1507 9.27675 24.1437 9.291 24.131C9.30054 24.1178 9.30567 24.1019 9.30567 24.0856C9.30567 24.0692 9.30054 24.0533 9.291 24.0401L9.03191 22.9123C9.01149 22.8314 9.01969 22.7459 9.05514 22.6703C9.09058 22.5947 9.15107 22.5337 9.22635 22.4977C11.5477 21.3737 13.7241 19.972 15.7076 18.3235L14.6445 17.2604H12.9076L7.65817 22.5886Z" fill="#FF6C37"/>
<path d="M5.97282 23.9239L7.26927 22.6275L9.2657 24.6239L6.08997 24.4037C6.03545 24.3994 5.98367 24.378 5.94202 24.3426C5.90037 24.3071 5.87098 24.2594 5.85804 24.2063C5.84511 24.1532 5.84929 24.0973 5.86999 24.0467C5.89069 23.996 5.92685 23.9532 5.97331 23.9244L5.97282 23.9239Z" fill="#1E2235"/>
<path d="M9.30412 24.8184L6.14103 24.5982C5.9534 24.5807 5.79201 24.4523 5.7259 24.2807C5.65979 24.1091 5.70014 23.9054 5.82993 23.7684L7.12637 22.4719C7.16987 22.4299 7.228 22.4064 7.28849 22.4064C7.34897 22.4064 7.4071 22.4299 7.4506 22.4719L9.43391 24.4552C9.46137 24.4929 9.47616 24.5382 9.47616 24.5848C9.47616 24.6314 9.46137 24.6767 9.43391 24.7143C9.40392 24.7628 9.35806 24.7994 9.30412 24.8179V24.8184ZM6.14103 24.0926L8.73343 24.2613L7.30769 22.9259L6.14103 24.0926Z" fill="#FF6C37"/>
<path d="M14.9429 17.1709L12.3243 17.5729L13.8409 16.0694L14.9429 17.1709Z" fill="#1E2235"/>
<path d="M12.3243 17.8184C12.2808 17.8196 12.2379 17.8079 12.201 17.7848C12.1641 17.7617 12.1348 17.7283 12.1167 17.6886C12.0891 17.6511 12.0742 17.6057 12.0742 17.5591C12.0742 17.5125 12.0891 17.4671 12.1167 17.4295L13.6202 15.9129C13.6659 15.87 13.7261 15.8462 13.7887 15.8462C13.8513 15.8462 13.9115 15.87 13.9571 15.9129L15.0596 17.0144C15.0816 17.0493 15.0933 17.0898 15.0933 17.1311C15.0933 17.1724 15.0816 17.2128 15.0596 17.2477C15.0488 17.2903 15.0259 17.3289 14.9938 17.3588C14.9616 17.3887 14.9215 17.4087 14.8783 17.4164L12.2859 17.8184H12.3243ZM13.8409 16.4053L12.9985 17.2477L14.4505 17.0275L13.8409 16.4053Z" fill="#FF6C37"/>
<path d="M14.9429 17.17L13.1152 17.4033C13.0663 17.4144 13.0151 17.4095 12.9692 17.3892C12.9233 17.3689 12.8852 17.3344 12.8605 17.2907C12.8358 17.2471 12.8258 17.1966 12.832 17.1469C12.8382 17.0971 12.8603 17.0506 12.895 17.0144L13.8414 16.068L14.9429 17.17Z" fill="#1E2235"/>
<path d="M13.0632 17.6502C12.9784 17.6494 12.8954 17.6262 12.8226 17.5829C12.7498 17.5396 12.6897 17.4778 12.6485 17.4038C12.599 17.3151 12.5798 17.2126 12.5939 17.112C12.6079 17.0113 12.6544 16.918 12.7263 16.8462L13.6727 15.8998C13.7184 15.8569 13.7786 15.8331 13.8412 15.8331C13.9038 15.8331 13.964 15.8569 14.0096 15.8998L15.1116 17.0018C15.1444 17.0328 15.1675 17.0727 15.178 17.1166C15.1886 17.1605 15.1862 17.2065 15.1711 17.2491C15.156 17.2916 15.1289 17.3289 15.0931 17.3564C15.0572 17.3838 15.0142 17.4003 14.9692 17.4038L13.1546 17.6371L13.0632 17.6502ZM13.0632 17.1705L14.4374 17.0018L13.8283 16.3927L13.0505 17.1705H13.0632ZM24.3408 7.7983C24.3164 7.75739 24.2778 7.72687 24.2324 7.71254C24.187 7.6982 24.1379 7.70104 24.0944 7.72052C24.0729 7.73139 24.0539 7.74646 24.0383 7.76483C24.0228 7.7832 24.0111 7.8045 24.004 7.82746C23.9895 7.8738 23.9941 7.92398 24.0166 7.96697C24.1075 8.15802 24.0822 8.38405 23.952 8.5503C23.9358 8.56632 23.9231 8.58552 23.9147 8.60669C23.9064 8.62786 23.9025 8.65054 23.9033 8.67329C23.9038 8.71888 23.9211 8.76268 23.952 8.79627C23.9852 8.80941 24.0222 8.80941 24.0555 8.79627C24.0857 8.80386 24.1174 8.80303 24.1471 8.79385C24.1769 8.78468 24.2035 8.76753 24.2242 8.74426C24.3309 8.61357 24.3985 8.45535 24.4192 8.28788C24.4398 8.1204 24.4127 7.95051 24.3408 7.79781V7.7983Z" fill="#FF6C37"/>
</svg>
