<svg width="32" height="31" viewBox="0 0 32 31" fill="none" xmlns="http://www.w3.org/2000/svg">
<path d="M15.4435 0C7.54552 0 8.03866 3.42502 8.03866 3.42502L8.04743 6.97344H15.5843V8.03877H5.0539C5.0539 8.03877 0 7.4656 0 15.4346C0 23.4038 4.41117 23.1212 4.41117 23.1212H7.04374V19.4231C7.04374 19.4231 6.90181 15.012 11.3845 15.012H18.8597C18.8597 15.012 23.0595 15.0798 23.0595 10.953V4.12951C23.0595 4.12951 23.6974 0 15.4435 0ZM11.2876 2.38624C11.4657 2.38608 11.6421 2.42104 11.8067 2.48913C11.9713 2.55721 12.1208 2.65708 12.2467 2.78301C12.3727 2.90895 12.4726 3.05848 12.5406 3.22306C12.6087 3.38763 12.6437 3.56402 12.6435 3.74212C12.6437 3.92022 12.6087 4.09661 12.5406 4.26118C12.4726 4.42575 12.3727 4.57529 12.2467 4.70123C12.1208 4.82716 11.9713 4.92703 11.8067 4.99511C11.6421 5.06319 11.4657 5.09816 11.2876 5.09799C11.1095 5.09816 10.9332 5.06319 10.7686 4.99511C10.604 4.92703 10.4545 4.82716 10.3285 4.70123C10.2026 4.57529 10.1027 4.42575 10.0346 4.26118C9.96657 4.09661 9.9316 3.92022 9.93177 3.74212C9.9316 3.56402 9.96657 3.38763 10.0346 3.22306C10.1027 3.05848 10.2026 2.90895 10.3285 2.78301C10.4545 2.65708 10.604 2.55721 10.7686 2.48913C10.9332 2.42104 11.1095 2.38608 11.2876 2.38624V2.38624Z" fill="#0891B2"/>
<path d="M15.6678 30.9493C23.5657 30.9493 23.0726 27.5243 23.0726 27.5243L23.0638 23.976H15.5268V22.9107H26.0572C26.0572 22.9107 31.1111 23.4838 31.1111 15.5146C31.1111 7.54552 26.6999 7.82814 26.6999 7.82814H24.0674V11.526C24.0674 11.526 24.2093 15.9372 19.7266 15.9372H12.2514C12.2514 15.9372 8.05159 15.8694 8.05159 19.9963V26.8199C8.05159 26.8199 7.41385 30.9493 15.6676 30.9493H15.6678ZM19.8236 28.5633C19.6455 28.5635 19.4691 28.5285 19.3045 28.4604C19.14 28.3924 18.9904 28.2925 18.8645 28.1666C18.7385 28.0406 18.6387 27.8911 18.5706 27.7265C18.5025 27.5619 18.4676 27.3856 18.4677 27.2075C18.4675 27.0293 18.5025 26.8529 18.5706 26.6884C18.6386 26.5238 18.7385 26.3742 18.8644 26.2483C18.9904 26.1223 19.1399 26.0224 19.3045 25.9544C19.4691 25.8863 19.6455 25.8513 19.8236 25.8515C20.0017 25.8513 20.1781 25.8863 20.3427 25.9543C20.5072 26.0224 20.6568 26.1223 20.7827 26.2482C20.9086 26.3742 21.0085 26.5237 21.0766 26.6883C21.1447 26.8528 21.1796 27.0292 21.1795 27.2073C21.1796 27.3854 21.1447 27.5618 21.0766 27.7264C21.0085 27.891 20.9086 28.0405 20.7827 28.1664C20.6568 28.2924 20.5072 28.3922 20.3427 28.4603C20.1781 28.5284 20.0017 28.5634 19.8236 28.5632V28.5633Z" fill="#FACC15"/>
</svg>
