<svg width="32" height="31" viewBox="0 0 32 31" fill="none" xmlns="http://www.w3.org/2000/svg">
<path d="M0.295996 10.7329C0.295996 10.7329 -0.461754 10.1866 0.447546 9.45731L2.56609 7.56293C2.56609 7.56293 3.17229 6.92516 3.81322 7.48084L23.3632 22.2822V29.3798C23.3632 29.3798 23.3537 30.4944 21.9234 30.3712L0.295996 10.7329Z" fill="#2489CA"/>
<path d="M5.33503 15.3079L0.295989 19.8891C0.295989 19.8891 -0.221808 20.2743 0.295989 20.9626L2.63554 23.0906C2.63554 23.0906 3.19123 23.6873 4.01213 23.0085L9.35427 18.9577L5.33503 15.3079Z" fill="#1070B3"/>
<path d="M14.1818 15.3457L23.4232 8.28915L23.3632 1.22942C23.3632 1.22942 22.9685 -0.311343 21.652 0.490611L9.35428 11.6832L14.1818 15.3457Z" fill="#0877B9"/>
<path d="M21.9235 30.3807C22.4602 30.9301 23.1106 30.7501 23.1106 30.7501L30.3124 27.2013C31.2343 26.573 31.1049 25.7932 31.1049 25.7932V4.6014C31.1049 3.66999 30.1514 3.34795 30.1514 3.34795L23.9094 0.339044C22.5455 -0.503955 21.6519 0.490594 21.6519 0.490594C21.6519 0.490594 22.8012 -0.336618 23.3632 1.2294V29.2504C23.3632 29.443 23.3222 29.6325 23.2401 29.803C23.0759 30.1345 22.7191 30.4439 21.8635 30.3144L21.9235 30.3807Z" fill="#3C99D4"/>
</svg>
